<svg xmlns="http://www.w3.org/2000/svg" height="24px" viewBox="0 -960 960 960" width="24px" fill="#f0f0f0"><path d="M223.5-99.91q-23.5-23.5-23.5-56.5t23.5-56.5q23.5-23.5 56.5-23.5t56.5 23.5q23.5 23.5 23.5 56.5t-23.5 56.5Q313-76.41 280-76.41t-56.5-23.5Zm400 0q-23.5-23.5-23.5-56.5t23.5-56.5q23.5-23.5 56.5-23.5t56.5 23.5q23.5 23.5 23.5 56.5t-23.5 56.5Q713-76.41 680-76.41t-56.5-23.5Zm-371.52-616.5 90.5 189h279.04l103.78-189H251.98Zm-41.83-87.18h580.92q27.21 0 41.41 24.09 14.19 24.09 1.04 48.91l-136.5 246.68q-11.48 20.71-30.8 32.31-19.33 11.6-42.31 11.6H328.07l-41.85 76.41h477.37v87.18H280q-47.63 0-71.59-41.42-23.95-41.41-1.76-82.08L259.93-496 117.85-796.41H36.41v-87.18h135.74l38 80Zm132.33 276.18h279.04-279.04Z"/></svg>